<?xml version="1.0" encoding="UTF-8" standalone="no"?>
<!-- Created with Inkscape (http://www.inkscape.org/) -->

<svg
   width="108"
   height="108"
   viewBox="0 0 28.574999 28.575001"
   version="1.1"
   id="svg80118"
   inkscape:version="1.1.1 (3bf5ae0d25, 2021-09-20)"
   sodipodi:docname="app_icon.svg"
   inkscape:export-filename="C:\src\ViewOnlyViewer\app\src\main\res\drawable-mdpi\app_icon.png"
   inkscape:export-xdpi="96"
   inkscape:export-ydpi="96"
   xmlns:inkscape="http://www.inkscape.org/namespaces/inkscape"
   xmlns:sodipodi="http://sodipodi.sourceforge.net/DTD/sodipodi-0.dtd"
   xmlns:xlink="http://www.w3.org/1999/xlink"
   xmlns="http://www.w3.org/2000/svg"
   xmlns:svg="http://www.w3.org/2000/svg">
  <sodipodi:namedview
     id="namedview80120"
     pagecolor="#ffffff"
     bordercolor="#666666"
     borderopacity="1.0"
     inkscape:pageshadow="2"
     inkscape:pageopacity="0.0"
     inkscape:pagecheckerboard="0"
     inkscape:document-units="px"
     showgrid="true"
     units="px"
     inkscape:zoom="6.1481484"
     inkscape:cx="53.999998"
     inkscape:cy="53.999998"
     inkscape:window-width="1448"
     inkscape:window-height="1032"
     inkscape:window-x="2991"
     inkscape:window-y="0"
     inkscape:window-maximized="0"
     inkscape:current-layer="layer8"
     showguides="true"
     inkscape:snap-global="true"
     inkscape:object-paths="true"
     inkscape:snap-grids="false"
     inkscape:snap-to-guides="false">
    <inkscape:grid
       type="xygrid"
       id="grid80501"
       empspacing="3"
       color="#3fabff"
       opacity="0.1254902"
       spacingx="0.79375"
       spacingy="0.79375"
       originx="14.2875"
       originy="14.287501" />
  </sodipodi:namedview>
  <defs
     id="defs80115">
    <clipPath
       clipPathUnits="userSpaceOnUse"
       id="clipPath4095">
      <rect
         style="display:inline;fill:#ffffff;fill-opacity:1;stroke:none;stroke-width:0.0999999;stroke-miterlimit:4;stroke-dasharray:none"
         id="rect4097"
         width="72"
         height="72"
         x="18.000002"
         y="18.000002" />
    </clipPath>
    <clipPath
       clipPathUnits="userSpaceOnUse"
       id="clipPath4099">
      <rect
         style="display:inline;fill:#ffffff;fill-opacity:1;stroke:none;stroke-width:0.0264583;stroke-miterlimit:4;stroke-dasharray:none"
         id="rect4101"
         width="19.049999"
         height="19.049999"
         x="4.7625003"
         y="4.7625003" />
    </clipPath>
    <clipPath
       clipPathUnits="userSpaceOnUse"
       id="clipPath4103">
      <rect
         style="display:inline;fill:#ffffff;fill-opacity:1;stroke:none;stroke-width:0.0999999;stroke-miterlimit:4;stroke-dasharray:none"
         id="rect4105"
         width="72"
         height="72"
         x="18.000002"
         y="18.000002" />
    </clipPath>
  </defs>
  <g
     inkscape:groupmode="layer"
     id="layer5"
     inkscape:label="背景"
     style="display:none"
     sodipodi:insensitive="true">
    <rect
       style="fill:#aaeeff;stroke:none;stroke-width:0.1"
       id="rect1531"
       width="28.574999"
       height="28.574999"
       x="0"
       y="1e-06" />
  </g>
  <g
     inkscape:label="フレーム"
     inkscape:groupmode="layer"
     id="layer1"
     style="display:none"
     sodipodi:insensitive="true">
    <rect
       style="fill:none;stroke:#2ad4ff;stroke-width:0.0264583;stroke-miterlimit:4;stroke-dasharray:none"
       id="rect80144"
       width="19.049999"
       height="19.049999"
       x="4.7625003"
       y="4.7625003" />
    <circle
       style="fill:none;fill-opacity:1;stroke:#00ff00;stroke-width:0.0994306;stroke-miterlimit:4;stroke-dasharray:none"
       id="path1936"
       cx="-14.2875"
       cy="14.2875"
       r="8.6815348"
       transform="scale(-1,1)" />
  </g>
  <g
     inkscape:groupmode="layer"
     id="layer2"
     inkscape:label="体"
     style="display:none"
     sodipodi:insensitive="true">
    <path
       id="rect3659"
       style="font-variation-settings:normal;opacity:1;vector-effect:none;fill:#ffe1da;fill-opacity:1;fill-rule:nonzero;stroke:#d35f5f;stroke-width:0.794263;stroke-linecap:butt;stroke-linejoin:miter;stroke-miterlimit:4;stroke-dasharray:none;stroke-dashoffset:0;stroke-opacity:1;-inkscape-stroke:none;paint-order:stroke fill markers;stop-color:#000000;stop-opacity:1"
       d="m 31.785156,61.152344 a 3.9284377,5.4031522 12.387585 0 0 -4.4375,4.5 3.9284377,5.4031522 12.387585 0 0 2.677735,6.121094 3.9284377,5.4031522 12.387585 0 0 3.123047,-1.015626 l 6.242187,2.689454 1.863281,-5.578125 -6.082031,-2.623047 A 3.9284377,5.4031522 12.387585 0 0 32.34375,61.21875 3.9284377,5.4031522 12.387585 0 0 31.785156,61.152344 Z"
       transform="scale(0.26458333)"
       clip-path="url(#clipPath4103)" />
    <path
       id="path3885"
       style="font-variation-settings:normal;opacity:1;vector-effect:none;fill:#ffe1da;fill-opacity:1;fill-rule:nonzero;stroke:#d35f5f;stroke-width:0.210149;stroke-linecap:butt;stroke-linejoin:miter;stroke-miterlimit:4;stroke-dasharray:none;stroke-dashoffset:0;stroke-opacity:1;-inkscape-stroke:none;paint-order:stroke fill markers;stop-color:#000000;stop-opacity:1"
       d="m 20.165178,16.179891 a 1.429584,1.0393991 77.612415 0 1 1.174089,1.190625 1.429584,1.0393991 77.612415 0 1 -0.708484,1.619539 1.429584,1.0393991 77.612415 0 1 -0.826306,-0.268717 l -1.651579,0.711584 -0.492993,-1.475879 1.609204,-0.694014 a 1.429584,1.0393991 77.612415 0 1 0.748275,-1.065568 1.429584,1.0393991 77.612415 0 1 0.147794,-0.01757 z"
       clip-path="url(#clipPath4099)" />
    <path
       id="path867"
       style="fill:#ffeeaa;stroke:#000000;stroke-width:0.75;stroke-linejoin:round;stroke-miterlimit:4;stroke-dasharray:none;paint-order:stroke fill markers"
       d="m 40.615234,66.476562 -2.789062,8.228516 5.074219,1.720703 c -1.419857,3.718749 -2.233618,8.420109 -2.183594,13.94336 0.07546,8.331035 5.753319,7.751953 13.015625,7.751953 7.262305,4e-6 13.207046,0.579078 13.283203,-7.751953 0.05027,-5.499425 -0.772604,-10.206339 -2.205078,-13.9375 l 5.089844,-1.726563 -2.789063,-8.228516 -7.263672,2.462891 0.03711,0.111328 C 58.074093,67.546983 56.026524,66.75 53.867188,66.75 c -2.15768,0 -4.205978,0.782989 -6.015626,2.271484 l 0.02734,-0.08203 z"
       transform="scale(0.26458333)"
       clip-path="url(#clipPath4095)" />
  </g>
  <g
     inkscape:groupmode="layer"
     id="layer6"
     inkscape:label="顔"
     style="display:none"
     sodipodi:insensitive="true">
    <ellipse
       style="fill:#ffe1da;fill-opacity:1;stroke:#d35f5f;stroke-width:0.153845;stroke-opacity:1"
       id="path69459"
       cx="14.170265"
       cy="12.673451"
       rx="5.1104856"
       ry="5.3258386" />
    <path
       style="fill:#ff8080;fill-opacity:1;stroke:#d35f5f;stroke-width:0.1;stroke-opacity:1"
       id="path76703"
       sodipodi:type="arc"
       sodipodi:cx="14.32997"
       sodipodi:cy="13.974782"
       sodipodi:rx="2.44117"
       sodipodi:ry="3.301538"
       sodipodi:start="0.24563586"
       sodipodi:end="2.6818173"
       sodipodi:arc-type="chord"
       sodipodi:open="true"
       d="M 16.697863,14.777627 A 2.44117,3.301538 0 0 1 14.590847,17.257414 2.44117,3.301538 0 0 1 12.14231,15.439829 Z" />
    <ellipse
       style="fill:#2b1100;fill-opacity:1;stroke:none;stroke-width:0.153845;stroke-opacity:1"
       id="path76731"
       cx="11.364062"
       cy="12.745748"
       rx="0.29659069"
       ry="0.6747669" />
    <path
       style="fill:none;stroke:#000000;stroke-width:0.102563;stroke-linecap:butt;stroke-linejoin:miter;stroke-opacity:1"
       d="m 14.124637,12.528851 -0.38785,0.963955 0.456294,0.265087"
       id="path76892" />
    <use
       x="0"
       y="0"
       xlink:href="#path76731"
       id="use77087"
       transform="translate(5.6124091,-0.04819794)"
       width="100%"
       height="100%" />
    <path
       style="fill:none;stroke:#2b1100;stroke-width:0.0890877;stroke-linecap:butt;stroke-linejoin:miter;stroke-opacity:1"
       d="M 11.247447,12.217858 11.114686,11.836173"
       id="path81705" />
    <path
       style="fill:none;stroke:#2b1100;stroke-width:0.0890877;stroke-linecap:butt;stroke-linejoin:miter;stroke-opacity:1"
       d="M 11.396801,12.151479 11.37191,11.786387"
       id="path81855"
       sodipodi:nodetypes="cc" />
    <path
       style="fill:none;stroke:#2b1100;stroke-width:0.0890877;stroke-linecap:butt;stroke-linejoin:miter;stroke-opacity:1"
       d="M 16.848275,12.226156 16.715515,11.84447"
       id="path21" />
    <path
       style="fill:none;stroke:#2b1100;stroke-width:0.0890877;stroke-linecap:butt;stroke-linejoin:miter;stroke-opacity:1"
       d="M 16.99763,12.159776 16.97274,11.794685"
       id="path23"
       sodipodi:nodetypes="cc" />
    <path
       style="fill:none;stroke:#2b1100;stroke-width:0.0890877;stroke-linecap:butt;stroke-linejoin:miter;stroke-opacity:1"
       d="m 11.706257,11.420567 c -0.125383,-0.130906 -0.491528,-0.31212 -0.985696,0.03519"
       id="path76"
       sodipodi:nodetypes="cc" />
    <path
       style="fill:none;stroke:#2b1100;stroke-width:0.0890877;stroke-linecap:butt;stroke-linejoin:miter;stroke-opacity:1"
       d="m 16.441802,11.24455 c 0.125383,-0.130906 0.491528,-0.312121 0.985696,0.03519"
       id="path1484"
       sodipodi:nodetypes="cc" />
  </g>
  <g
     inkscape:groupmode="layer"
     id="layer7"
     inkscape:label="髪の毛"
     style="display:none"
     sodipodi:insensitive="true">
    <path
       style="fill:#2b1100;stroke:none;stroke-width:0.0512815px;stroke-linecap:butt;stroke-linejoin:miter;stroke-opacity:1"
       d="M 9.3563719,15.107426 C 8.2786873,12.138226 8.2033401,6.1917554 14.28434,6.2149637 c 4.659882,0.061333 5.873983,5.2008163 5.019227,8.5550773 -0.665851,-2.870965 -1.584144,-4.451813 -5.019227,-4.723367 -4.4305228,0.190507 -4.3370165,2.824595 -4.9279681,5.060752 z"
       id="path77122"
       sodipodi:nodetypes="ccccc" />
    <path
       style="fill:#2b1100;stroke:none;stroke-width:0.0512815px;stroke-linecap:butt;stroke-linejoin:miter;stroke-opacity:1"
       d="M 9.4476308,13.685595 C 8.0401,13.318885 6.0674724,14.179369 5.7516542,15.926784 7.0670873,16.475857 8.9825543,15.574548 9.4476308,13.685595 Z"
       id="path79299"
       sodipodi:nodetypes="ccc" />
    <path
       style="fill:#2b1100;stroke:none;stroke-width:0.0512815px;stroke-linecap:butt;stroke-linejoin:miter;stroke-opacity:1"
       d="m 22.765427,15.698127 c -0.361899,-1.482832 -2.014632,-2.909151 -3.620833,-2.374108 0.166228,1.483674 1.825878,2.837478 3.620833,2.374108 z"
       id="path79299-4"
       sodipodi:nodetypes="ccc" />
  </g>
  <g
     inkscape:groupmode="layer"
     id="layer3"
     inkscape:label="写真枠">
    <rect
       style="fill:none;fill-opacity:1;stroke:#0044aa;stroke-width:0.411604;stroke-linecap:round;stroke-linejoin:miter;stroke-miterlimit:10;stroke-dasharray:none;stroke-opacity:1"
       id="rect1066"
       width="13.890457"
       height="10.417843"
       x="4.6541924"
       y="11.335526"
       rx="0.329283"
       ry="0.329283"
       transform="rotate(-9.9654491)" />
  </g>
  <g
     inkscape:groupmode="layer"
     id="layer8"
     inkscape:label="山">
    <path
       style="fill:none;stroke:#0044aa;stroke-width:0.521364;stroke-linecap:round;stroke-linejoin:round;stroke-miterlimit:4;stroke-dasharray:none;stroke-opacity:1"
       d="m 7.5130792,15.422012 3.4201198,-4.878173 3.213231,2.252817"
       id="path6779" />
    <path
       style="fill:none;stroke:#0044aa;stroke-width:0.521364;stroke-linecap:round;stroke-linejoin:miter;stroke-miterlimit:4;stroke-dasharray:none;stroke-opacity:1"
       d="m 11.633109,11.034551 -1.214963,1.552437"
       id="path6880" />
    <path
       style="fill:none;stroke:#0044aa;stroke-width:0.521364;stroke-linecap:round;stroke-linejoin:miter;stroke-miterlimit:4;stroke-dasharray:none;stroke-opacity:1"
       d="m 12.216369,11.443478 -0.959131,1.225545"
       id="path7028" />
    <path
       style="fill:none;stroke:#0044aa;stroke-width:0.521364;stroke-linecap:round;stroke-linejoin:round;stroke-miterlimit:4;stroke-dasharray:none;stroke-opacity:1"
       d="m 12.806879,11.857488 1.13693,-1.557808 1.986548,1.258565"
       id="path7479"
       sodipodi:nodetypes="ccc" />
    <path
       style="fill:none;stroke:#0044aa;stroke-width:0.521364;stroke-linecap:round;stroke-linejoin:miter;stroke-miterlimit:4;stroke-dasharray:none;stroke-opacity:1"
       d="M 14.764779,10.837181 14.043661,11.7586"
       id="path7732" />
  </g>
  <g
     inkscape:groupmode="layer"
     id="layer4"
     inkscape:label="人">
    <g
       id="g8226"
       transform="matrix(1.1010124,-0.19345368,0.19345368,1.1010124,-4.3317216,0.95076273)">
      <circle
         style="fill:none;fill-opacity:1;stroke:#0044aa;stroke-width:0.343958;stroke-linecap:round;stroke-linejoin:round;stroke-miterlimit:4;stroke-dasharray:none;stroke-opacity:1"
         id="path1931"
         cx="17.25841"
         cy="14.960619"
         r="2.0730073" />
      <path
         style="fill:none;stroke:#0044aa;stroke-width:0.343958;stroke-linecap:butt;stroke-linejoin:miter;stroke-miterlimit:4;stroke-dasharray:none;stroke-opacity:1"
         d="m 15.38521,14.26129 c 0.293545,0.364775 0.622906,0.496743 1.048992,0 0.441242,0.407052 0.882485,0.58512 1.323727,0 0.468517,0.527303 0.90507,0.436643 1.323728,0"
         id="path1966"
         sodipodi:nodetypes="cccc" />
      <path
         style="fill:none;stroke:#0044aa;stroke-width:0.343958;stroke-linecap:round;stroke-linejoin:round;stroke-miterlimit:4;stroke-dasharray:none;stroke-opacity:1"
         d="m 16.502886,13.224787 -0.643132,1.017772 1.442363,-1.12392 -0.487031,1.067724 1.173871,-0.974064 c 0,0 -0.274736,1.011528 -0.24976,0.986552 0.02498,-0.02498 0.81172,-0.618156 0.81172,-0.618156"
         id="path3163" />
      <path
         style="fill:none;stroke:#0044aa;stroke-width:0.343958;stroke-linecap:round;stroke-linejoin:round;stroke-miterlimit:4;stroke-dasharray:none;stroke-opacity:1"
         d="m 15.778582,15.647458 c 0.190513,0.638585 2.646409,0.645224 2.953411,0"
         id="path3377"
         sodipodi:nodetypes="cc" />
      <path
         style="fill:none;stroke:#0044aa;stroke-width:0.343958;stroke-linecap:butt;stroke-linejoin:miter;stroke-miterlimit:4;stroke-dasharray:none;stroke-opacity:1"
         d="m 15.347746,19.006729 c 0,0 0.713752,-1.935639 1.948127,-1.935639 1.234374,0 1.760808,1.923151 1.760808,1.923151"
         id="path3758"
         sodipodi:nodetypes="czc" />
    </g>
    <g
       id="g8235"
       transform="matrix(1.0484836,-0.18422409,0.18422409,1.0484836,-3.2517372,1.7956035)">
      <path
         id="circle4982"
         style="fill:none;stroke:#0044aa;stroke-width:0.3175;stroke-linecap:round;stroke-linejoin:round;stroke-miterlimit:4;stroke-dasharray:none"
         d="m 10.915732,15.567082 a 1.7250165,1.7250165 0 0 0 1.725016,1.725017 1.7250165,1.7250165 0 0 0 1.725017,-1.725017 1.7250165,1.7250165 0 0 0 -1.725017,-1.725016 1.7250165,1.7250165 0 0 0 -1.725016,1.725016 z" />
      <path
         style="fill:none;stroke:#0044aa;stroke-width:0.3175;stroke-linecap:butt;stroke-linejoin:miter;stroke-miterlimit:4;stroke-dasharray:none;stroke-opacity:1"
         d="m 11.091589,14.985148 c 0.244269,0.303541 0.518341,0.413356 0.8729,0 0.367172,0.338721 0.734345,0.486897 1.101517,0 0.389868,0.438786 0.753138,0.363345 1.101516,0"
         id="path4984"
         sodipodi:nodetypes="cccc" />
      <path
         style="fill:none;stroke:#0044aa;stroke-width:0.3175;stroke-linecap:round;stroke-linejoin:round;stroke-miterlimit:4;stroke-dasharray:none;stroke-opacity:1"
         d="m 12.021644,14.12264 -0.535171,0.846921 1.200237,-0.93525 -0.405275,0.888488 0.976816,-0.81055 c 0,0 -0.228616,0.841725 -0.207833,0.820941 0.02079,-0.02079 0.675459,-0.514387 0.675459,-0.514387"
         id="path4986" />
      <path
         style="fill:none;stroke:#0044aa;stroke-width:0.3175;stroke-linecap:round;stroke-linejoin:round;stroke-miterlimit:4;stroke-dasharray:none;stroke-opacity:1"
         d="m 11.418927,16.138623 c 0.158532,0.531387 2.202162,0.536912 2.457629,0"
         id="path4988"
         sodipodi:nodetypes="cc" />
      <path
         style="fill:none;stroke:#0044aa;stroke-width:0.3175;stroke-linecap:butt;stroke-linejoin:miter;stroke-miterlimit:4;stroke-dasharray:none;stroke-opacity:1"
         d="m 11.060414,18.933981 c 0,0 0.593936,-1.610707 1.6211,-1.610707 1.027162,0 1.465225,1.600316 1.465225,1.600316"
         id="path4990"
         sodipodi:nodetypes="czc" />
      <path
         style="fill:none;stroke:#0044aa;stroke-width:0.3175;stroke-linecap:round;stroke-linejoin:round;stroke-miterlimit:4;stroke-dasharray:none;stroke-opacity:1"
         d="m 11.301636,16.721426 c -0.943029,0.354508 0.120244,1.149669 0.262247,0.249759 z"
         id="path5057"
         sodipodi:nodetypes="ccc" />
      <path
         style="fill:none;stroke:#0044aa;stroke-width:0.3175;stroke-linecap:round;stroke-linejoin:round;stroke-miterlimit:4;stroke-dasharray:none;stroke-opacity:1"
         d="m 13.989452,16.721426 c 0.943029,0.354508 -0.120244,1.149669 -0.262247,0.249759 z"
         id="path6668"
         sodipodi:nodetypes="ccc" />
    </g>
  </g>
</svg>
